<?xml version="1.0" standalone="no"?>
<!DOCTYPE svg PUBLIC "-//W3C//DTD SVG 20010904//EN"
 "http://www.w3.org/TR/2001/REC-SVG-20010904/DTD/svg10.dtd">
<svg version="1.0" xmlns="http://www.w3.org/2000/svg"
 width="92.000000pt" height="92.000000pt" viewBox="0 0 92.000000 92.000000"
 preserveAspectRatio="xMidYMid meet">

<g transform="translate(0.000000,92.000000) scale(0.100000,-0.100000)"
fill="#000000" stroke="none">
<path d="M750 805 c-80 -80 -120 -113 -131 -110 -9 3 -24 -2 -33 -11 -16 -15
-18 -15 -35 0 -24 22 -26 21 -75 -24 l-44 -40 -6 35 c-8 40 -55 99 -97 121
-37 18 -112 18 -149 -1 -32 -17 -42 -42 -12 -30 59 25 93 27 137 10 63 -23 95
-72 95 -142 0 -47 -4 -58 -36 -93 -84 -93 -219 -61 -255 60 -11 36 -11 49 3
86 18 51 6 69 -17 25 -40 -79 -2 -191 78 -230 24 -12 52 -21 62 -21 15 0 12
-7 -19 -39 -28 -28 -43 -37 -61 -34 -17 4 -28 -2 -41 -21 -17 -26 -16 -28 12
-57 l28 -29 -21 -21 -21 -21 -30 22 c-48 35 -100 2 -73 -47 16 -31 188 -193
204 -193 19 0 47 27 47 44 0 7 -10 26 -21 40 l-22 28 21 21 22 21 29 -28 c29
-28 31 -29 57 -12 19 13 25 24 22 41 -4 19 23 51 154 182 88 87 164 166 169
176 8 14 6 23 -6 37 -16 18 -16 20 -1 36 10 9 14 24 11 32 -4 10 12 34 47 69
28 29 49 56 45 60 -4 4 -31 -17 -60 -45 -42 -41 -55 -50 -65 -40 -10 10 10 35
95 120 59 59 113 108 120 108 24 0 13 -24 -29 -67 -23 -23 -39 -46 -35 -50 9
-8 107 86 107 103 0 16 -28 44 -43 44 -7 0 -64 -52 -127 -115z m-145 -205 c65
-66 68 -71 52 -87 -15 -16 -18 -16 -35 0 -10 9 -22 17 -25 17 -12 0 -7 -23 8
-40 14 -15 13 -19 -4 -34 -18 -16 -21 -16 -44 -1 -31 20 -44 4 -17 -20 20 -18
20 -18 -2 -42 l-22 -23 -22 21 c-12 11 -25 16 -28 11 -3 -5 1 -15 9 -22 20
-17 19 -33 -4 -54 -16 -15 -19 -15 -31 -1 -12 15 -40 21 -40 8 0 -3 7 -15 17
-25 15 -17 15 -19 -2 -38 -16 -18 -20 -19 -35 -5 -17 15 -40 20 -40 8 0 -3 8
-15 17 -25 16 -17 16 -20 0 -36 -16 -16 -22 -12 -89 56 l-73 72 55 55 c30 30
60 55 67 55 19 0 91 68 99 93 6 21 102 127 114 127 3 0 37 -31 75 -70z m40 40
c23 -24 26 -33 17 -42 -10 -10 -19 -6 -43 19 -18 17 -28 36 -25 42 11 17 20
14 51 -19z m-395 -395 c75 -75 92 -97 82 -107 -10 -10 -32 7 -109 84 -83 83
-105 118 -75 118 4 0 50 -43 102 -95z m-32 -92 l-22 -23 -33 32 -33 32 22 23
22 23 33 -32 33 -32 -22 -23z m-76 -10 c83 -83 103 -113 76 -113 -17 0 -188
171 -188 187 0 28 28 9 112 -74z"/>
<path d="M270 625 l-54 -55 -23 22 c-36 34 -41 11 -5 -25 l32 -32 65 65 c36
35 65 68 65 72 0 21 -31 3 -80 -47z"/>
</g>
</svg>
